<svg width="103" height="46" viewBox="0 0 103 46" fill="none" xmlns="http://www.w3.org/2000/svg">
<g id="Layer_1" clip-path="url(#clip0_430_386)" filter="url(#filter0_d_430_386)">
<path id="Vector" d="M18 20.0147C18 17.1408 19.9785 15 23.9779 15C28.2175 15 29.5176 17.3167 29.5176 19.0176C29.5176 19.0762 29.5176 19.2229 29.5035 19.3109H26.5075V19.2522C26.5075 18.4311 25.7868 17.5806 24.2181 17.5806C22.6494 17.5806 21.7167 18.607 21.7167 20.0147C21.7167 21.4223 22.4799 22.4194 24.2322 22.4194C25.7302 22.4194 26.5358 21.7302 26.5358 20.7771V20.7038H29.5317C29.5459 20.8065 29.5459 20.9238 29.5459 20.9531C29.5459 22.9032 28.1327 25 23.992 25C19.4556 25 18 22.5073 18 20.0147Z" fill="#F1F1F1"/>
<path id="Vector_2" d="M30.2524 15.176H33.8278V22.0381H38.7175V24.8241H30.2524V15.176Z" fill="#F1F1F1"/>
<path id="Vector_3" d="M38.6892 19.956C38.6892 17.2434 40.6112 15 44.9214 15C49.2317 15 51.1395 17.2434 51.1395 19.956C51.1395 22.6686 49.3589 25 44.9214 25C40.484 25 38.6892 22.8886 38.6892 19.956ZM47.4228 19.9707C47.4228 18.607 46.6173 17.5806 44.9214 17.5806C43.2256 17.5806 42.4059 18.607 42.4059 19.9707C42.4059 21.4809 43.2115 22.4194 44.9214 22.4194C46.6314 22.4194 47.4228 21.4223 47.4228 19.9707Z" fill="#F1F1F1"/>
<path id="Vector_4" d="M50.5745 15.176H54.7434L57.6264 21.7449H57.6405L60.4669 15.176H64.0423L59.52 24.8241H55.0826L50.5745 15.176Z" fill="#F1F1F1"/>
<path id="Vector_5" d="M64.5933 15.176H73.4541V17.7566H68.1263V19.1789H72.0408V20.7771H68.1263V22.2434H73.5954V24.8241H64.5933V15.176Z" fill="#F1F1F1"/>
<path id="Vector_6" d="M74.3303 15.176H80.1669C83.8694 15.176 85 16.3343 85 18.0939C85 19.0616 84.6043 20.0147 83.2476 20.3959V20.4252C84.7598 20.7478 84.9576 21.7889 84.9576 22.7859V24.8241H81.4387V22.6833C81.4387 21.8622 81.1137 21.5103 80.2234 21.5103H77.8633V24.8241H74.3303V15.176ZM80.2092 19.7654C81.2692 19.7654 81.6507 19.3549 81.6507 18.739C81.6507 18.1672 81.2692 17.7566 80.0397 17.7566H77.8633V19.7654H80.2092Z" fill="#F1F1F1"/>
</g>
<defs>
<filter id="filter0_d_430_386" x="0" y="0" width="103" height="46" filterUnits="userSpaceOnUse" color-interpolation-filters="sRGB">
<feFlood flood-opacity="0" result="BackgroundImageFix"/>
<feColorMatrix in="SourceAlpha" type="matrix" values="0 0 0 0 0 0 0 0 0 0 0 0 0 0 0 0 0 0 127 0" result="hardAlpha"/>
<feOffset dy="3"/>
<feGaussianBlur stdDeviation="9"/>
<feComposite in2="hardAlpha" operator="out"/>
<feColorMatrix type="matrix" values="0 0 0 0 0 0 0 0 0 0 0 0 0 0 0 0 0 0 0.2 0"/>
<feBlend mode="normal" in2="BackgroundImageFix" result="effect1_dropShadow_430_386"/>
<feBlend mode="normal" in="SourceGraphic" in2="effect1_dropShadow_430_386" result="shape"/>
</filter>
<clipPath id="clip0_430_386">
<rect width="67" height="10" fill="white" transform="translate(18 15)"/>
</clipPath>
</defs>
</svg>
