<svg width="17" height="17" viewBox="0 0 17 17" fill="none" xmlns="http://www.w3.org/2000/svg">
<path id="Exclude" fill-rule="evenodd" clip-rule="evenodd" d="M17 8.5C17 13.1944 13.1944 17 8.5 17C3.80558 17 0 13.1944 0 8.5C0 3.80558 3.80558 0 8.5 0C13.1944 0 17 3.80558 17 8.5ZM13.2131 6.46983C13.5401 6.12406 13.5401 5.56344 13.2131 5.21767C12.8862 4.87189 12.3562 4.87189 12.0293 5.21767L7.59848 9.90408L5.67905 7.87392C5.35214 7.52814 4.8221 7.52814 4.49519 7.87392C4.16827 8.21969 4.16827 8.78031 4.49519 9.12608L7.00655 11.7823C7.33347 12.1281 7.8635 12.1281 8.19042 11.7823L13.2131 6.46983Z" fill="white"/>
</svg>
